<?xml version="1.0" encoding="UTF-8"?><svg id="Calque_1" xmlns="http://www.w3.org/2000/svg" viewBox="0 0 995.79 652.75"><path d="m683.92,350.29V102.57s5.18-80.68-83.96-80.68,2.08,0,2.08,0h-98.87s42.46,40.31,43.21,102.22c0,0,5.62,70.95-78.4,107.02,0,0-94.58,33.04-126.23,107.53L40.9,457.12l456.96,180.06,457.03-180.06-270.97-106.83Z" style="fill:#e30613;"/><path d="m683.74,365.63v15.02l194.97,76.76-380.96,149.98L116.79,457.41l215.5-84.84c.72-5.59,1.79-11.02,3.21-16.29l-256.82,101.15,418.99,165.02,418.93-165.02-232.87-91.8Z" style="fill:#fff;"/><path d="m497.75,607.39l380.96-149.98-194.97-76.76v28h-351.08c-1.77-12.81-1.82-24.79-.37-36.08l-215.5,84.84,380.96,149.98Z" style="fill:#bfbfbf;"/><path d="m304.87,120.6c0,58.5,47.95,105.57,107.02,105.57s107.34-47.07,107.34-105.57S471.28,15.54,411.89,15.54s-107.02,47.07-107.02,105.06Z" style="fill:#e30613;"/><path d="m698.55,339.79V102.31c.03-.55.05-1.34.05-2.61,0-10.11-1.94-41.28-24.2-65.02-17-18.13-41.37-27.46-72.35-27.87v-.08h-135.17S439.71.38,411.9.38c-67.07,0-121.64,53.69-121.64,119.68s54.57,120.19,121.64,120.19c1.09,0,2.16-.05,3.24-.08-29.41,17.72-64.95,46-84.21,86.51C320.36,330.83,1.02,456.57,1.02,456.57l496.85,195.77,496.89-195.76s-278.95-109.98-296.22-116.79Z" style="fill:none; stroke:#e5251d; stroke-width:.75px;"/><path d="m360.54,444.9c-.25-4.62-.54-10.23-.54-14.32h-.1c-1.18,3.84-2.51,8.02-4.18,12.59l-5.85,16.09h-3.25l-5.41-15.79c-1.57-4.72-2.85-8.95-3.79-12.89h-.1c-.1,4.13-.34,9.64-.64,14.66l-.88,14.22h-4.08l2.31-33.16h5.46l5.66,16.04c1.38,4.08,2.46,7.72,3.35,11.17h.1c.89-3.34,2.07-6.98,3.54-11.17l5.9-16.04h5.46l2.07,33.16h-4.23l-.79-14.56Z" style="fill:#e30613; stroke:#e30613;"/><path d="m414.49,449.04l-3.44,10.43h-4.43l11.27-33.16h5.16l11.32,33.16h-4.58l-3.54-10.43h-11.76Zm10.87-3.34l-3.3-9.54c-.69-2.16-1.18-4.13-1.67-6.05h-.15c-.44,1.92-.98,3.99-1.62,6l-3.25,9.59h9.99Z" style="fill:#e30613; stroke:#e30613;"/><path d="m484.19,426.31v33.16h-4.33v-33.16h4.33Z" style="fill:#e30613; stroke:#e30613;"/><path d="m538.64,429.95h-10.08v-3.64h24.55v3.64h-10.13v29.52h-4.33v-29.52Z" style="fill:#e30613; stroke:#e30613;"/><path d="m597.47,426.8c2.16-.44,5.31-.74,8.22-.74,4.57,0,7.58.88,9.64,2.75,1.62,1.43,2.61,3.69,2.61,6.3,0,4.33-2.8,7.23-6.25,8.41v.15c2.51.89,4.04,3.25,4.87,6.69,1.08,4.62,1.87,7.82,2.51,9.1h-4.43c-.54-.93-1.28-3.79-2.16-7.92-.98-4.58-2.8-6.3-6.69-6.44h-4.03v14.36h-4.28v-32.66Zm4.28,15.05h4.38c4.58,0,7.48-2.51,7.48-6.3,0-4.28-3.1-6.15-7.62-6.15-2.07,0-3.49.2-4.23.39v12.05Z" style="fill:#e30613; stroke:#e30613;"/><path d="m681.79,443.92h-12.84v11.95h14.36v3.59h-18.69v-33.16h17.96v3.59h-13.63v10.48h12.84v3.54Z" style="fill:#e30613; stroke:#e30613;"/><path d="m339.59,503.15l-3.44,10.43h-4.43l11.27-33.16h5.16l11.31,33.16h-4.58l-3.54-10.43h-11.76Zm10.87-3.34l-3.3-9.54c-.69-2.16-1.18-4.13-1.67-6.05h-.15c-.44,1.92-.98,3.99-1.62,6l-3.25,9.59h9.99Z" style="fill:#e30613; stroke:#e30613;"/><path d="m394.78,480.91c2.16-.44,5.31-.74,8.22-.74,4.58,0,7.58.89,9.64,2.75,1.62,1.43,2.61,3.69,2.61,6.3,0,4.33-2.8,7.23-6.25,8.41v.15c2.51.89,4.03,3.25,4.87,6.69,1.08,4.62,1.87,7.82,2.51,9.1h-4.43c-.54-.94-1.28-3.79-2.16-7.92-.98-4.58-2.8-6.3-6.69-6.44h-4.03v14.36h-4.28v-32.66Zm4.28,15.05h4.38c4.57,0,7.48-2.51,7.48-6.3,0-4.28-3.1-6.15-7.62-6.15-2.07,0-3.49.2-4.23.39v12.05Z" style="fill:#e30613; stroke:#e30613;"/><path d="m459.69,484.06h-10.08v-3.64h24.55v3.64h-10.13v29.52h-4.33v-29.52Z" style="fill:#e30613; stroke:#e30613;"/><path d="m514.03,480.42v33.16h-4.33v-33.16h4.33Z" style="fill:#e30613; stroke:#e30613;"/><path d="m549.95,508.36c1.92,1.23,4.67,2.16,7.62,2.16,4.38,0,6.94-2.26,6.94-5.66,0-3.05-1.77-4.87-6.25-6.54-5.41-1.97-8.75-4.82-8.75-9.45,0-5.16,4.28-9,10.72-9,3.34,0,5.85.79,7.28,1.62l-1.18,3.49c-1.03-.64-3.25-1.57-6.25-1.57-4.53,0-6.25,2.7-6.25,4.97,0,3.1,2.02,4.62,6.59,6.39,5.61,2.21,8.41,4.87,8.41,9.74,0,5.12-3.74,9.59-11.56,9.59-3.2,0-6.69-.98-8.46-2.16l1.13-3.59Z" style="fill:#e30613; stroke:#e30613;"/><path d="m609.08,503.15l-3.44,10.43h-4.43l11.27-33.16h5.16l11.32,33.16h-4.58l-3.54-10.43h-11.76Zm10.87-3.34l-3.3-9.54c-.69-2.16-1.18-4.13-1.67-6.05h-.15c-.44,1.92-.98,3.99-1.62,6l-3.25,9.59h9.99Z" style="fill:#e30613; stroke:#e30613;"/><path d="m658.43,513.58v-33.16h4.72l10.58,16.78c2.41,3.89,4.38,7.33,5.9,10.77l.15-.05c-.39-4.43-.49-8.46-.49-13.58v-13.92h4.03v33.16h-4.33l-10.53-16.82c-2.31-3.69-4.53-7.48-6.15-11.07l-.15.05c.25,4.18.3,8.17.3,13.68v14.17h-4.03Z" style="fill:#e30613; stroke:#e30613;"/></svg>